Coordinates
version=1
nRows=11
nColumns=40
inDegrees=yes

Units are S.I. units (second, meters, Newtons, ...)
If the header above contains a line with 'inDegrees', this indicates whether rotational values are in degrees (yes) or radians (no).

endheader
time	pelvis_tilt	pelvis_list	pelvis_rotation	pelvis_tx	pelvis_ty	pelvis_tz	hip_flexion_r	hip_adduction_r	hip_rotation_r	knee_angle_r	knee_angle_r_beta	ankle_angle_r	subtalar_angle_r	mtp_angle_r	hip_flexion_l	hip_adduction_l	hip_rotation_l	knee_angle_l	knee_angle_l_beta	ankle_angle_l	subtalar_angle_l	mtp_angle_l	lumbar_extension	lumbar_bending	lumbar_rotation	arm_flex_r	arm_add_r	arm_rot_r	elbow_flex_r	pro_sup_r	wrist_flex_r	wrist_dev_r	arm_flex_l	arm_add_l	arm_rot_l	elbow_flex_l	pro_sup_l	wrist_flex_l	wrist_dev_l
      0.00500000	      2.23379811	      1.02077972	     -0.11924311	      0.26704540	      0.91694386	     -1.21293725	     -3.69916683	    -19.01450956	    -37.25502908	      5.43997074	      0.09494540	     -6.21237071	      8.01156808	      0.00000000	     -1.96295481	    -17.49283687	    -38.97889870	      6.74156547	      0.11766251	     -4.52645197	     17.46299492	      0.00000000	     -5.92184223	     -0.01665057	     -1.18513836	     40.09206259	    -16.08821954	     40.09206259	     79.00284821	     45.27689070	      0.00000000	      0.00000000	     40.09206259	    -16.08821954	     40.09206259	     79.00284821	     45.27689070	      0.00000000	      0.00000000
      0.01000000	      2.21192166	      1.00005925	     -0.12722804	      0.26698810	      0.91691474	     -1.21293892	     -3.65151349	    -18.99678825	    -37.20022974	      5.46773224	      0.09542993	     -6.18012062	      7.90757785	      0.00000000	     -1.93749503	    -17.51715523	    -38.97743057	      6.74110349	      0.11765445	     -4.56711870	     17.39542589	      0.00000000	     -5.92180857	     -0.00586595	     -1.17520124	     40.30353237	    -16.02117350	     40.30353237	     78.63373085	     45.23575024	      0.00000000	      0.00000000	     40.30353237	    -16.02117350	     40.30353237	     78.63373085	     45.23575024	      0.00000000	      0.00000000
      0.01500000	      2.21477420	      0.95426545	     -0.15073118	      0.26688859	      0.91694573	     -1.21289808	     -3.62178218	    -18.94204630	    -37.10571305	      5.48014273	      0.09564653	     -6.20306708	      7.77917299	      0.00000000	     -1.94774673	    -17.56170246	    -38.96576474	      6.72760031	      0.11741878	     -4.53197691	     17.36422239	      0.00000000	     -5.95401775	      0.11097373	     -1.14955304	     40.41770055	    -15.98482812	     40.41770055	     78.43032117	     45.21200597	      0.00000000	      0.00000000	     40.41770055	    -15.98482812	     40.41770055	     78.43032117	     45.21200597	      0.00000000	      0.00000000
      0.02000000	      2.18278519	      0.93198655	     -0.06365280	      0.26682627	      0.91686872	     -1.21309114	     -3.61119186	    -18.91658174	    -37.13786597	      5.47939441	      0.09563347	     -6.22925662	      7.65180555	      0.00000000	     -1.80409457	    -17.66056849	    -39.02519072	      6.93708729	      0.12107501	     -4.44310558	     17.56997683	      0.00000000	     -5.93412921	      0.19950257	     -1.09610757	     40.62485711	    -15.92435086	     40.62485711	     78.13711612	     45.18510221	      0.00000000	      0.00000000	     40.62485711	    -15.92435086	     40.62485711	     78.13711612	     45.18510221	      0.00000000	      0.00000000
      0.02500000	      2.17874136	      0.98608479	     -0.11076697	      0.26672699	      0.91685735	     -1.21302063	     -3.51200646	    -19.03627443	    -37.16130236	      5.64586600	      0.09853895	     -6.17358208	      7.73956433	      0.00000000	     -1.84492703	    -17.55933048	    -38.98408315	      6.82985232	      0.11920341	     -4.48161628	     17.43389710	      0.00000000	     -5.95882008	      0.08828190	     -1.12827673	     40.76468809	    -15.88132845	     40.76468809	     77.90850188	     45.16049510	      0.00000000	      0.00000000	     40.76468809	    -15.88132845	     40.76468809	     77.90850188	     45.16049510	      0.00000000	      0.00000000
      0.03000000	      2.16198153	      1.04373325	     -0.12030363	      0.26661541	      0.91678613	     -1.21301889	     -3.40298689	    -19.17482456	    -37.26018980	      5.84643934	      0.10203962	     -6.08469356	      7.92138837	      0.00000000	     -1.81677071	    -17.49293955	    -38.97864250	      6.83449838	      0.11928450	     -4.47360820	     17.39723795	      0.00000000	     -5.96395194	      0.13048919	     -0.93849428	     41.13220952	    -15.77327643	     41.13220952	     77.37887596	     45.11272265	      0.00000000	      0.00000000	     41.13220952	    -15.77327643	     41.13220952	     77.37887596	     45.11272265	      0.00000000	      0.00000000
      0.03500000	      2.14551387	      1.01348069	     -0.10194116	      0.26649023	      0.91676832	     -1.21305914	     -3.35225394	    -19.15186377	    -37.21464111	      5.89768466	      0.10293402	     -6.09237394	      7.79007516	      0.00000000	     -1.75792406	    -17.55188233	    -38.99043512	      6.90079687	      0.12044163	     -4.46025102	     17.46581785	      0.00000000	     -5.98392832	      0.10682513	     -1.02393875	     41.63435225	    -15.63516422	     41.63435225	     76.77327158	     45.06895060	      0.00000000	      0.00000000	     41.63435225	    -15.63516422	     41.63435225	     76.77327158	     45.06895060	      0.00000000	      0.00000000
      0.04000000	      2.15483016	      0.99724221	     -0.14726708	      0.26632038	      0.91681553	     -1.21296859	     -3.31724291	    -19.11357140	    -37.00254491	      5.89539814	      0.10289411	     -6.06309104	      7.47685053	      0.00000000	     -1.79686651	    -17.54816586	    -38.97380822	      6.83077661	      0.11921954	     -4.53498446	     17.34918878	      0.00000000	     -6.03678763	      0.14304347	     -0.95523692	     41.76889978	    -15.60109337	     41.76889978	     76.64261554	     45.06145268	      0.00000000	      0.00000000	     41.76889978	    -15.60109337	     41.76889978	     76.64261554	     45.06145268	      0.00000000	      0.00000000
      0.04500000	      2.10789116	      1.00466374	     -0.10268296	      0.26618583	      0.91668939	     -1.21311031	     -3.17523896	    -19.22208656	    -37.22026133	      6.14384871	      0.10723039	     -5.98998316	      7.73744831	      0.00000000	     -1.66643781	    -17.58372384	    -38.99279331	      6.97980504	      0.12182058	     -4.38554843	     17.44311548	      0.00000000	     -6.02940915	      0.21294624	     -0.92863142	     42.05347122	    -15.52798181	     42.05347122	     76.35425249	     45.04433836	      0.00000000	      0.00000000	     42.05347122	    -15.52798181	     42.05347122	     76.35425249	     45.04433836	      0.00000000	      0.00000000
      0.05000000	      2.10580248	      1.03751386	     -0.09348274	      0.26599721	      0.91668960	     -1.21312313	     -3.14154772	    -19.24901031	    -37.06867781	      6.16034981	      0.10751839	     -6.03704503	      7.40101854	      0.00000000	     -1.63378423	    -17.55601329	    -38.98065905	      7.00571467	      0.12227279	     -4.41539070	     17.41639814	      0.00000000	     -6.03094123	      0.15269293	     -0.94072975	     42.14175949	    -15.50579311	     42.14175949	     76.26886619	     45.03938669	      0.00000000	      0.00000000	     42.14175949	    -15.50579311	     42.14175949	     76.26886619	     45.03938669	      0.00000000	      0.00000000
      0.05500000	      2.04086131	      1.01706705	     -0.07607563	      0.26586735	      0.91656823	     -1.21317508	     -2.98100092	    -19.29354768	    -37.14277389	      6.35874138	      0.11098097	     -5.94551594	      7.50047636	      0.00000000	     -1.51283469	    -17.61162440	    -38.99889906	      7.10337662	      0.12397731	     -4.35444086	     17.48194514	      0.00000000	     -6.02408565	      0.06058341	     -1.18822012	     42.26029491	    -15.47699732	     42.26029491	     76.16312506	     45.03345926	      0.00000000	      0.00000000	     42.26029491	    -15.47699732	     42.26029491	     76.16312506	     45.03345926	      0.00000000	      0.00000000
